<svg width="18" height="18" viewBox="0 0 18 18" fill="none" xmlns="http://www.w3.org/2000/svg">
<path fill-rule="evenodd" clip-rule="evenodd" d="M3.77184 0H3.76583C3.75303 0.0015346 3.74028 0.00353679 3.72762 0.00600246L3.73762 0.00200078C3.72962 0.00244096 3.72162 0.00290123 3.71381 0.00338143C3.70075 0.00622493 3.68781 0.009562 3.675 0.0133855C3.64769 0.0181387 3.6208 0.0250293 3.59457 0.0339937C3.48715 0.0660694 3.39269 0.131412 3.32479 0.22061C3.2569 0.309808 3.21906 0.418256 3.21674 0.530334C3.21274 2.02182 2.01778 3.22006 0.526339 3.2297C0.390706 3.23059 0.260586 3.28351 0.162824 3.37753C0.0650621 3.47155 0.00711456 3.59951 0.000935921 3.73501C0.000775859 3.73901 0.000615861 3.74101 0.000455799 3.74501C-0.000183652 3.76041 -0.000150257 3.77583 0.000555854 3.79123C0.000715916 3.79523 0.000855999 3.79723 0.00101606 3.80123C0.00748107 3.93697 0.0658911 4.06503 0.164155 4.15889C0.262419 4.25275 0.393012 4.30524 0.5289 4.30548C2.02584 4.30748 3.22799 5.50888 3.23219 7.00587C3.23257 7.13903 3.28312 7.26715 3.37376 7.3647C3.4644 7.46225 3.58847 7.52207 3.72124 7.53222L3.72724 7.53262C3.75027 7.53438 3.7734 7.53462 3.79646 7.53336C3.80447 7.53292 3.81247 7.53246 3.82047 7.53198C3.95474 7.52378 4.08084 7.46477 4.17318 7.36696C4.26551 7.26914 4.31715 7.13984 4.31761 7.00533C4.32161 5.51397 5.51671 4.31592 7.00801 4.30628C7.14381 4.30539 7.27407 4.25234 7.37187 4.15812C7.46966 4.06389 7.52751 3.93569 7.53345 3.80001C7.53361 3.79601 7.53377 3.79201 7.53393 3.79001C7.53421 3.78308 7.53435 3.77614 7.53435 3.7692C7.53435 3.7652 7.53435 3.7632 7.53435 3.7592C7.53415 3.61907 7.47841 3.48474 7.37934 3.38564C7.28027 3.28654 7.14595 3.23076 7.00583 3.23052C5.50861 3.22852 4.3062 2.02706 4.3022 0.529814C4.30181 0.389628 4.24584 0.25532 4.14656 0.156348C4.04728 0.0573748 3.9128 0.00181753 3.77262 0.00186077L3.77184 0ZM3.75983 2.41852C4.0876 2.97688 4.5547 3.44389 5.11311 3.77148C4.56154 4.09853 4.10014 4.56196 3.77546 5.11498C3.44777 4.55664 2.98075 4.08963 2.42241 3.76202C2.97389 3.43493 3.43523 2.9715 3.75983 2.41852ZM11.5116 2.50235H11.5016C11.4916 2.50193 11.4826 2.50287 11.4726 2.50301C11.4586 2.50375 11.4452 2.50457 11.4314 2.50501C11.2971 2.51325 11.1711 2.57228 11.0788 2.67011C10.9865 2.76794 10.9348 2.89723 10.9344 3.03172C10.9304 4.46524 10.3599 5.8385 9.34791 6.85383C8.33596 7.86916 6.96463 8.44373 5.53116 8.45299C5.39544 8.45388 5.26524 8.50686 5.16746 8.60099C5.06968 8.69512 5.01179 8.8232 5.00573 8.95879C5.00547 8.9648 5.00519 8.9708 5.00493 8.9768C5.00429 8.99187 5.00429 9.00695 5.00493 9.02202C5.00519 9.02802 5.00547 9.03403 5.00573 9.04003C5.01208 9.17585 5.07044 9.30402 5.16871 9.39799C5.26699 9.49195 5.39765 9.5445 5.53362 9.54475C6.97193 9.54675 8.35019 10.119 9.3678 11.1355C10.3854 12.152 10.9587 13.5297 10.9628 14.968C10.9632 15.1011 11.0137 15.2292 11.1042 15.3267C11.1948 15.4243 11.3187 15.4841 11.4514 15.4944L11.4615 15.4951C11.4847 15.4969 11.508 15.4971 11.5313 15.4958C11.5453 15.4951 11.5587 15.4943 11.5725 15.4938C11.7067 15.4856 11.8328 15.4266 11.9251 15.3288C12.0174 15.2309 12.069 15.1017 12.0695 14.9672C12.0735 13.5338 12.6442 12.1607 13.6562 11.1455C14.6681 10.1303 16.0394 9.55584 17.4727 9.54659C17.6086 9.5457 17.7389 9.49261 17.8367 9.39832C17.9345 9.30402 17.9923 9.17574 17.9982 9.04001C17.9984 9.03401 17.9987 9.028 17.999 9.022C17.9992 9.01514 17.9994 9.00827 17.9994 9.00139C17.9994 8.99539 17.9994 8.98939 17.9994 8.98339C17.9992 8.84326 17.9434 8.70894 17.8444 8.60984C17.7453 8.51075 17.611 8.45497 17.4709 8.45473C16.0323 8.45273 14.6538 7.8806 13.636 6.86395C12.6183 5.84728 12.0449 4.46936 12.0411 3.03078C12.0396 2.93871 12.0142 2.8486 11.9674 2.76934C11.9205 2.69009 11.8537 2.62443 11.7737 2.57886C11.7527 2.56629 11.7308 2.55519 11.7083 2.54565C11.6885 2.53735 11.6681 2.53027 11.6475 2.52444C11.606 2.51253 11.5632 2.50574 11.52 2.50423C11.5174 2.50376 11.5142 2.50278 11.5116 2.50235ZM11.488 5.52727C11.8116 6.2995 12.2842 7.00945 12.8879 7.61251C13.4893 8.21329 14.1968 8.68359 14.9659 9.00634C14.2035 9.33055 13.5025 9.79991 12.9065 10.3979C12.3077 10.9985 11.8388 11.7046 11.5169 12.4722C11.1932 11.6998 10.7206 10.9898 10.1168 10.3867C9.5156 9.78609 8.8084 9.31588 8.03951 8.99315C8.80182 8.6689 9.50265 8.19953 10.0986 7.60165C10.6973 7.00093 11.1661 6.29484 11.488 5.52727ZM6.07289 11.7595H6.06888C6.05789 11.7612 6.04694 11.7632 6.03607 11.7655L6.04007 11.7615C6.03407 11.7619 6.02607 11.7623 6.02007 11.7627C5.99996 11.7669 5.98012 11.7722 5.96064 11.7787C5.93464 11.7834 5.90902 11.7901 5.88401 11.7987C5.84036 11.8142 5.79892 11.8353 5.76077 11.8615C5.75876 11.8628 5.75675 11.8642 5.75476 11.8655C5.6851 11.9128 5.62773 11.976 5.58739 12.0499C5.54706 12.1239 5.52493 12.2063 5.52285 12.2905C5.51885 13.427 4.61182 14.3375 3.4753 14.3448C3.33967 14.3457 3.20955 14.3987 3.11179 14.4927C3.01402 14.5867 2.95608 14.7147 2.9499 14.8502C2.94978 14.8522 2.94966 14.8562 2.94954 14.8582C2.94888 14.8734 2.94888 14.8887 2.94954 14.904C2.94966 14.906 2.9498 14.91 2.94992 14.912C2.95628 15.0478 3.01464 15.176 3.11292 15.2699C3.21119 15.3639 3.34184 15.4164 3.4778 15.4166C4.61854 15.4186 5.53198 16.331 5.53518 17.4718C5.53556 17.605 5.58616 17.7332 5.67688 17.8308C5.7676 17.9283 5.89176 17.9881 6.02461 17.9982L6.02861 17.9985C6.05158 18.0002 6.07464 18.0005 6.09764 17.9992C6.10364 17.9988 6.11164 17.9984 6.11764 17.998C6.25188 17.9898 6.37794 17.9308 6.47024 17.8329C6.56255 17.7351 6.61416 17.6059 6.61462 17.4714C6.61862 16.3349 7.52577 15.4246 8.66219 15.4173C8.79803 15.4164 8.92832 15.3633 9.02612 15.269C9.12392 15.1748 9.18175 15.0465 9.18763 14.9108C9.18777 14.9068 9.18791 14.9048 9.18803 14.9008C9.18831 14.8939 9.18845 14.887 9.18845 14.8802C9.18845 14.8782 9.18845 14.8742 9.18845 14.8722C9.18825 14.732 9.13251 14.5977 9.03344 14.4986C8.93437 14.3995 8.80005 14.3437 8.65993 14.3435C7.51897 14.3417 6.60537 13.4291 6.60231 12.2881C6.60192 12.1479 6.54594 12.0136 6.44665 11.9146C6.34735 11.8157 6.21308 11.7595 6.07289 11.7595ZM6.59833 12.289V12.818H6.53471C6.55931 12.678 6.57412 12.5346 6.57912 12.3889C6.589 12.3563 6.5949 12.3229 6.59833 12.289ZM6.06286 13.9996C6.29549 14.35 6.59675 14.6512 6.94733 14.8835C6.60203 15.1148 6.30516 15.4129 6.07531 15.7591C5.84274 15.4087 5.54154 15.1076 5.19102 14.8752C5.53626 14.6439 5.83307 14.3458 6.06286 13.9996Z" fill="#8755DE"/>
</svg>
